<svg width="830" height="135" viewBox="0 0 830 135" fill="none" xmlns="http://www.w3.org/2000/svg">
<g clip-path="url(#clip0_375_6881)">
<rect width="830" height="135" rx="14" fill="#16302C"/>
<rect width="830" height="135" rx="14" fill="#142724" fill-opacity="0.4"/>
<rect width="830" height="135" rx="14" fill="url(#paint0_radial_375_6881)" fill-opacity="0.2"/>
<rect width="830" height="135" rx="14" fill="url(#paint1_radial_375_6881)" fill-opacity="0.2"/>
<path fill-rule="evenodd" clip-rule="evenodd" d="M39.0098 30.8346L28 30.835V25.123H39.0098V30.835H44.754V41.8771H39.0098V36.5471C36.093 36.5979 33.7442 38.9647 33.7442 41.8771H28C28 35.8103 32.9205 30.8862 39.0098 30.835V30.8346Z" fill="#A0FFEF"/>
<path d="M67.0059 31.08C67.0059 32.312 66.7259 33.3573 66.1659 34.216C65.6246 35.0747 64.8312 35.7187 63.7859 36.148C62.7406 36.5773 61.4806 36.792 60.0059 36.792H58.0459V42H54.3219V25.368H60.0339C61.5086 25.368 62.7592 25.592 63.7859 26.04C64.8312 26.488 65.6246 27.132 66.1659 27.972C66.7259 28.812 67.0059 29.848 67.0059 31.08ZM63.2819 31.08C63.2819 30.464 63.1419 29.96 62.8619 29.568C62.6006 29.176 62.2179 28.8867 61.7139 28.7C61.2286 28.5133 60.6406 28.42 59.9499 28.42H58.0459V33.74H59.9499C60.6406 33.74 61.2286 33.6467 61.7139 33.46C62.2179 33.2733 62.6006 32.984 62.8619 32.592C63.1419 32.2 63.2819 31.696 63.2819 31.08ZM78.6069 42H75.2189V41.048C74.7709 41.4027 74.2295 41.692 73.5949 41.916C72.9602 42.14 72.2602 42.252 71.4949 42.252C70.1322 42.252 69.0869 41.9253 68.3589 41.272C67.6495 40.6187 67.2949 39.7133 67.2949 38.556C67.2949 37.3053 67.7335 36.3627 68.6109 35.728C69.4882 35.0747 70.6735 34.748 72.1669 34.748C72.7082 34.748 73.2495 34.7947 73.7909 34.888C74.3322 34.9813 74.7709 35.1027 75.1069 35.252V34.58C75.1069 33.852 74.8735 33.3387 74.4069 33.04C73.9589 32.7227 73.2495 32.564 72.2789 32.564C71.5882 32.564 70.8789 32.648 70.1509 32.816C69.4415 32.984 68.8722 33.1987 68.4429 33.46L68.3029 30.324C68.8815 30.044 69.5629 29.8293 70.3469 29.68C71.1495 29.512 71.9709 29.428 72.8109 29.428C74.6775 29.428 76.1055 29.8293 77.0949 30.632C78.1029 31.416 78.6069 32.6573 78.6069 34.356V42ZM75.1069 39.144V37.38C74.8455 37.2493 74.5189 37.1467 74.1269 37.072C73.7535 36.9973 73.3895 36.96 73.0349 36.96C72.3255 36.96 71.7842 37.0907 71.4109 37.352C71.0375 37.5947 70.8509 37.9773 70.8509 38.5C70.8509 38.9853 71.0095 39.34 71.3269 39.564C71.6442 39.7693 72.1109 39.872 72.7269 39.872C73.1562 39.872 73.5949 39.8067 74.0429 39.676C74.4909 39.5267 74.8455 39.3493 75.1069 39.144ZM99.1591 29.68L95.5191 42H91.7111L90.2551 37.66C89.9938 36.764 89.7791 36.0453 89.6111 35.504C89.4431 34.944 89.3031 34.4307 89.1911 33.964H89.0511C88.9578 34.4307 88.8178 34.944 88.6311 35.504C88.4631 36.0453 88.2484 36.764 87.9871 37.66L86.5311 42H82.7231L79.0831 29.764L82.6951 29.596L84.3471 35.476C84.4404 35.868 84.5338 36.3347 84.6271 36.876C84.7391 37.3987 84.8231 37.884 84.8791 38.332H85.0191C85.0751 37.884 85.1684 37.3987 85.2991 36.876C85.4298 36.3347 85.5511 35.868 85.6631 35.476L87.2871 30.604H91.0951L92.7191 35.476C92.8311 35.868 92.9524 36.3347 93.0831 36.876C93.2138 37.3987 93.3071 37.884 93.3631 38.332H93.5031C93.5591 37.884 93.6338 37.3987 93.7271 36.876C93.8391 36.3347 93.9418 35.868 94.0351 35.476L95.6311 29.68H99.1591ZM112.911 30.968C112.911 32.0693 112.603 33.0213 111.987 33.824C111.39 34.608 110.634 35.1587 109.719 35.476L114.087 42H109.775L106.079 36.4H103.979V42H100.255V25.368H106.023C107.479 25.368 108.72 25.592 109.747 26.04C110.774 26.4693 111.558 27.104 112.099 27.944C112.64 28.7653 112.911 29.7733 112.911 30.968ZM109.159 30.968C109.159 30.3893 109.019 29.9133 108.739 29.54C108.478 29.148 108.104 28.868 107.619 28.7C107.152 28.5133 106.583 28.42 105.911 28.42H103.979V33.488H105.911C106.583 33.488 107.152 33.404 107.619 33.236C108.104 33.0493 108.478 32.7693 108.739 32.396C109.019 32.0227 109.159 31.5467 109.159 30.968ZM130.176 33.684C130.176 35.308 129.803 36.7453 129.056 37.996C128.31 39.2467 127.246 40.2267 125.864 40.936C124.502 41.6453 122.868 42 120.964 42H115.028V25.368H120.964C122.868 25.368 124.502 25.7227 125.864 26.432C127.246 27.1413 128.31 28.1213 129.056 29.372C129.803 30.604 130.176 32.0413 130.176 33.684ZM126.312 33.684C126.312 32.6013 126.098 31.6773 125.668 30.912C125.239 30.1467 124.623 29.5587 123.82 29.148C123.018 28.7187 122.066 28.504 120.964 28.504H118.724V38.864H120.964C122.066 38.864 123.018 38.6587 123.82 38.248C124.623 37.8187 125.239 37.2213 125.668 36.456C126.098 35.672 126.312 34.748 126.312 33.684Z" fill="#A0FFEF"/>
<path d="M48.4377 78H43.5601L41.8427 73.0194H34.6637L32.9119 78H28.2748L35.6942 57.5966H41.0183L48.4377 78ZM40.6748 69.4127L39.0261 64.7756C38.8658 64.3176 38.7284 63.894 38.6139 63.5047C38.5223 63.0925 38.4307 62.6803 38.3391 62.2681H38.1673C38.0757 62.6803 37.9727 63.0925 37.8582 63.5047C37.7666 63.894 37.6407 64.3176 37.4804 64.7756L35.7972 69.4127H40.6748ZM64.2568 78H59.8601V68.9662C59.8601 68.0731 59.6426 67.4319 59.2075 67.0426C58.7724 66.6533 58.177 66.4587 57.4214 66.4587C56.9176 66.4587 56.4023 66.5503 55.8756 66.7335C55.349 66.8938 54.8452 67.1228 54.3643 67.4205V78H49.9676V62.9894L54.3643 62.7833V64.1917C55.0971 63.6421 55.8413 63.2413 56.597 62.9894C57.3756 62.7146 58.1885 62.5772 59.0358 62.5772C60.6158 62.5772 61.8753 63.0238 62.8142 63.9169C63.7759 64.787 64.2568 66.161 64.2568 68.0388V78ZM86.6847 78H82.5284V76.8321C81.9788 77.2672 81.3147 77.6222 80.5362 77.897C79.7576 78.1717 78.8989 78.3091 77.96 78.3091C76.2883 78.3091 75.006 77.9084 74.1129 77.1069C73.2427 76.3054 72.8076 75.1948 72.8076 73.7751C72.8076 72.2408 73.3457 71.0844 74.422 70.3058C75.4983 69.5043 76.9524 69.1036 78.7844 69.1036C79.4484 69.1036 80.1125 69.1608 80.7766 69.2753C81.4407 69.3898 81.9788 69.5387 82.391 69.7219V68.8975C82.391 68.0044 82.1048 67.3747 81.5323 67.0083C80.9827 66.619 80.1125 66.4243 78.9218 66.4243C78.0745 66.4243 77.2043 66.5274 76.3112 66.7335C75.441 66.9396 74.7426 67.2029 74.2159 67.5235L74.0442 63.6764C74.7541 63.3329 75.5899 63.0696 76.5517 62.8864C77.5363 62.6803 78.5439 62.5772 79.5744 62.5772C81.8643 62.5772 83.6161 63.0696 84.8298 64.0543C86.0664 65.016 86.6847 66.5388 86.6847 68.6227V78ZM82.391 74.4964V72.3324C82.0704 72.1721 81.6697 72.0462 81.1888 71.9546C80.7308 71.863 80.2843 71.8172 79.8492 71.8172C78.979 71.8172 78.3149 71.9775 77.8569 72.298C77.3989 72.5957 77.1699 73.0652 77.1699 73.7064C77.1699 74.3017 77.3646 74.7368 77.7539 75.0116C78.1432 75.2635 78.7157 75.3895 79.4713 75.3895C79.998 75.3895 80.5362 75.3093 81.0857 75.149C81.6353 74.9658 82.0704 74.7483 82.391 74.4964ZM112.584 62.8864L108.119 78H103.447L101.661 72.6759C101.341 71.5767 101.077 70.6951 100.871 70.031C100.665 69.344 100.493 68.7143 100.356 68.1418H100.184C100.07 68.7143 99.8979 69.344 99.6689 70.031C99.4628 70.6951 99.1995 71.5767 98.8789 72.6759L97.0927 78H92.4212L87.9558 62.9894L92.3869 62.7833L94.4135 69.9967C94.528 70.4775 94.6425 71.05 94.757 71.7141C94.8944 72.3553 94.9974 72.9507 95.0661 73.5003H95.2379C95.3066 72.9507 95.421 72.3553 95.5813 71.7141C95.7416 71.05 95.8905 70.4775 96.0279 69.9967L98.0201 64.0199H102.692L104.684 69.9967C104.821 70.4775 104.97 71.05 105.13 71.7141C105.291 72.3553 105.405 72.9507 105.474 73.5003H105.646C105.714 72.9507 105.806 72.3553 105.92 71.7141C106.058 71.05 106.184 70.4775 106.298 69.9967L108.256 62.8864H112.584ZM137.767 78H133.37V68.9662C133.37 68.8517 133.359 68.7486 133.336 68.657C133.313 68.5654 133.29 68.4738 133.267 68.3822C133.198 67.6953 132.969 67.2029 132.58 66.9052C132.191 66.6075 131.687 66.4587 131.069 66.4587C131.046 66.4587 131.012 66.4701 130.966 66.493C130.92 66.493 130.886 66.493 130.863 66.493C130.428 66.5159 129.97 66.6075 129.489 66.7678C129.031 66.9281 128.584 67.1457 128.149 67.4205C128.172 67.6266 128.183 67.8327 128.183 68.0388C128.206 68.2449 128.218 68.4624 128.218 68.6914V78H123.855V68.9662C123.855 68.8517 123.844 68.7486 123.821 68.657C123.798 68.5654 123.775 68.4738 123.752 68.3822C123.684 67.6953 123.455 67.2029 123.065 66.9052C122.676 66.6075 122.172 66.4587 121.554 66.4587C121.119 66.4587 120.638 66.5503 120.111 66.7335C119.608 66.8938 119.138 67.1228 118.703 67.4205V78H114.306V62.9894L118.703 62.7833V64.1917C119.207 63.8024 119.711 63.4932 120.214 63.2642C120.741 63.0123 121.256 62.852 121.76 62.7833C122.356 62.6459 122.985 62.6116 123.649 62.6803C124.474 62.7261 125.218 62.9207 125.882 63.2642C126.546 63.6077 127.073 64.123 127.462 64.8099C128.264 64.0314 129.088 63.4703 129.935 63.1268C130.805 62.7604 131.687 62.5772 132.58 62.5772C134.114 62.5772 135.362 63.0238 136.324 63.9169C137.286 64.787 137.767 66.161 137.767 68.0388V78ZM153.648 78H149.492V76.8321C148.942 77.2672 148.278 77.6222 147.499 77.897C146.721 78.1717 145.862 78.3091 144.923 78.3091C143.252 78.3091 141.969 77.9084 141.076 77.1069C140.206 76.3054 139.771 75.1948 139.771 73.7751C139.771 72.2408 140.309 71.0844 141.385 70.3058C142.462 69.5043 143.916 69.1036 145.748 69.1036C146.412 69.1036 147.076 69.1608 147.74 69.2753C148.404 69.3898 148.942 69.5387 149.354 69.7219V68.8975C149.354 68.0044 149.068 67.3747 148.496 67.0083C147.946 66.619 147.076 66.4243 145.885 66.4243C145.038 66.4243 144.168 66.5274 143.275 66.7335C142.404 66.9396 141.706 67.2029 141.179 67.5235L141.008 63.6764C141.717 63.3329 142.553 63.0696 143.515 62.8864C144.5 62.6803 145.507 62.5772 146.538 62.5772C148.828 62.5772 150.579 63.0696 151.793 64.0543C153.03 65.016 153.648 66.5388 153.648 68.6227V78ZM149.354 74.4964V72.3324C149.034 72.1721 148.633 72.0462 148.152 71.9546C147.694 71.863 147.248 71.8172 146.813 71.8172C145.942 71.8172 145.278 71.9775 144.82 72.298C144.362 72.5957 144.133 73.0652 144.133 73.7064C144.133 74.3017 144.328 74.7368 144.717 75.0116C145.107 75.2635 145.679 75.3895 146.435 75.3895C146.961 75.3895 147.499 75.3093 148.049 75.149C148.599 74.9658 149.034 74.7483 149.354 74.4964ZM155.735 78V74.2559L163.12 66.6648H156.147V62.8864H168.341V66.6304L160.99 74.2216H168.753V78H155.735ZM173.205 55.9479C173.892 55.9479 174.453 56.1769 174.888 56.6349C175.323 57.0699 175.541 57.6195 175.541 58.2836C175.541 58.9706 175.323 59.5431 174.888 60.0011C174.453 60.4362 173.892 60.6537 173.205 60.6537C172.495 60.6537 171.9 60.4362 171.419 60.0011C170.961 59.5431 170.732 58.9706 170.732 58.2836C170.732 57.6195 170.961 57.0699 171.419 56.6349C171.9 56.1769 172.495 55.9479 173.205 55.9479ZM175.335 62.7833V78H170.938V62.9894L175.335 62.7833ZM192.532 78H188.135V68.9662C188.135 68.0731 187.918 67.4319 187.483 67.0426C187.048 66.6533 186.452 66.4587 185.697 66.4587C185.193 66.4587 184.677 66.5503 184.151 66.7335C183.624 66.8938 183.12 67.1228 182.639 67.4205V78H178.243V62.9894L182.639 62.7833V64.1917C183.372 63.6421 184.116 63.2413 184.872 62.9894C185.651 62.7146 186.464 62.5772 187.311 62.5772C188.891 62.5772 190.15 63.0238 191.089 63.9169C192.051 64.787 192.532 66.161 192.532 68.0388V78ZM209.526 62.3712L209.492 65.7717H207.225C207.454 66.0694 207.625 66.4129 207.74 66.8022C207.877 67.1686 207.946 67.5579 207.946 67.9701C207.946 69.5501 207.396 70.821 206.297 71.7828C205.198 72.7217 203.698 73.2369 201.797 73.3285L200.217 74.8742C200.492 74.8284 200.813 74.7941 201.179 74.7712C201.546 74.7254 201.912 74.7025 202.278 74.7025C202.645 74.6796 202.931 74.6681 203.137 74.6681C205.267 74.6681 206.893 75.0803 208.015 75.9047C209.16 76.7062 209.732 77.8741 209.732 79.4083C209.732 80.9197 209.102 82.1677 207.843 83.1524C206.606 84.1599 204.603 84.6637 201.832 84.6637C200.229 84.6637 198.729 84.5149 197.332 84.2172C195.958 83.9195 194.847 83.5188 194 83.015L194.344 79.2366C194.825 79.5801 195.477 79.8892 196.302 80.164C197.126 80.4388 198.042 80.6563 199.049 80.8166C200.08 80.9998 201.088 81.0914 202.072 81.0914C203.057 81.0914 203.801 81.0227 204.305 80.8853C204.809 80.7708 205.164 80.5876 205.37 80.3357C205.576 80.1067 205.679 79.8205 205.679 79.477C205.679 78.9503 205.416 78.5725 204.889 78.3435C204.385 78.1374 203.435 78.0343 202.038 78.0343C201.191 78.0343 200.286 78.0687 199.324 78.1374C198.362 78.2061 197.538 78.3206 196.851 78.4809V75.4238L199.29 73.1224C197.824 72.8476 196.691 72.2408 195.889 71.3019C195.088 70.363 194.687 69.2524 194.687 67.9701C194.687 66.8709 194.95 65.9206 195.477 65.1191C196.027 64.3176 196.794 63.6993 197.779 63.2642C198.786 62.8062 199.965 62.5772 201.317 62.5772C202.255 62.5772 203.126 62.7032 203.927 62.9551L209.526 62.3712ZM203.927 67.9701C203.927 67.2602 203.687 66.6762 203.206 66.2183C202.748 65.7603 202.118 65.5313 201.317 65.5313C200.492 65.5313 199.839 65.7603 199.359 66.2183C198.901 66.6762 198.672 67.2602 198.672 67.9701C198.672 68.657 198.901 69.2295 199.359 69.6875C199.839 70.1455 200.492 70.3745 201.317 70.3745C202.118 70.3745 202.748 70.157 203.206 69.7219C203.687 69.2639 203.927 68.6799 203.927 67.9701ZM236.657 78H231.78L230.062 73.0194H222.883L221.132 78H216.495L223.914 57.5966H229.238L236.657 78ZM228.895 69.4127L227.246 64.7756C227.085 64.3176 226.948 63.894 226.834 63.5047C226.742 63.0925 226.65 62.6803 226.559 62.2681H226.387C226.295 62.6803 226.192 63.0925 226.078 63.5047C225.986 63.894 225.86 64.3176 225.7 64.7756L224.017 69.4127H228.895ZM254.057 64.6038C254.057 66.1152 253.713 67.3976 253.026 68.4509C252.362 69.5043 251.389 70.2943 250.106 70.821C248.824 71.3477 247.278 71.6111 245.469 71.6111H243.065V78H238.496V57.5966H245.504C247.313 57.5966 248.847 57.8714 250.106 58.421C251.389 58.9706 252.362 59.7606 253.026 60.7911C253.713 61.8216 254.057 63.0925 254.057 64.6038ZM249.488 64.6038C249.488 63.8482 249.316 63.2299 248.973 62.749C248.652 62.2681 248.183 61.9132 247.565 61.6842C246.969 61.4552 246.248 61.3407 245.401 61.3407H243.065V67.867H245.401C246.248 67.867 246.969 67.7525 247.565 67.5235C248.183 67.2945 248.652 66.9396 248.973 66.4587C249.316 65.9778 249.488 65.3595 249.488 64.6038ZM261.104 57.5966V78H256.535V57.5966H261.104ZM53.1092 91.8864L48.6438 107H43.9723L42.1862 101.676C41.8656 100.577 41.6022 99.6951 41.3962 99.031C41.1901 98.344 41.0183 97.7143 40.8809 97.1418H40.7092C40.5947 97.7143 40.4229 98.344 40.1939 99.031C39.9878 99.6951 39.7245 100.577 39.4039 101.676L37.6178 107H32.9463L28.4809 91.9894L32.9119 91.7833L34.9385 98.9967C35.053 99.4775 35.1675 100.05 35.282 100.714C35.4194 101.355 35.5225 101.951 35.5912 102.5H35.7629C35.8316 101.951 35.9461 101.355 36.1064 100.714C36.2667 100.05 36.4155 99.4775 36.5529 98.9967L38.5452 93.0199H43.2167L45.2089 98.9967C45.3463 99.4775 45.4951 100.05 45.6554 100.714C45.8157 101.355 45.9302 101.951 45.9989 102.5H46.1707C46.2394 101.951 46.331 101.355 46.4455 100.714C46.5829 100.05 46.7088 99.4775 46.8233 98.9967L48.7812 91.8864H53.1092ZM64.4492 91.749L64.2775 95.9739C64.1401 95.9052 63.8997 95.8365 63.5562 95.7678C63.2356 95.6991 62.9264 95.6648 62.6287 95.6648C62.0105 95.6648 61.4036 95.7793 60.8082 96.0083C60.2358 96.2144 59.7091 96.5006 59.2282 96.867V107H54.8315V91.9894L59.2282 91.7833V93.5695C59.8923 92.8825 60.5678 92.3787 61.2548 92.0581C61.9647 91.7375 62.6974 91.5772 63.4531 91.5772C63.6134 91.5772 63.7852 91.5887 63.9684 91.6116C64.1744 91.6345 64.3347 91.6803 64.4492 91.749ZM79.1118 107H74.9555V105.832C74.4059 106.267 73.7418 106.622 72.9633 106.897C72.1847 107.172 71.326 107.309 70.3871 107.309C68.7154 107.309 67.4331 106.908 66.54 106.107C65.6698 105.305 65.2347 104.195 65.2347 102.775C65.2347 101.241 65.7728 100.084 66.8491 99.3058C67.9254 98.5043 69.3795 98.1036 71.2115 98.1036C71.8755 98.1036 72.5396 98.1608 73.2037 98.2753C73.8678 98.3898 74.4059 98.5387 74.8181 98.7219V97.8975C74.8181 97.0044 74.5319 96.3747 73.9594 96.0083C73.4098 95.619 72.5396 95.4243 71.3489 95.4243C70.5016 95.4243 69.6314 95.5274 68.7383 95.7335C67.8681 95.9396 67.1697 96.2029 66.643 96.5235L66.4713 92.6764C67.1812 92.3329 68.017 92.0696 68.9788 91.8864C69.9634 91.6803 70.971 91.5772 72.0015 91.5772C74.2914 91.5772 76.0432 92.0696 77.2569 93.0543C78.4935 94.016 79.1118 95.5388 79.1118 97.6227V107ZM74.8181 103.496V101.332C74.4975 101.172 74.0968 101.046 73.6159 100.955C73.1579 100.863 72.7114 100.817 72.2763 100.817C71.4061 100.817 70.742 100.977 70.284 101.298C69.826 101.596 69.597 102.065 69.597 102.706C69.597 103.302 69.7917 103.737 70.181 104.012C70.5703 104.264 71.1428 104.389 71.8984 104.389C72.4251 104.389 72.9633 104.309 73.5128 104.149C74.0624 103.966 74.4975 103.748 74.8181 103.496ZM97.0997 99.2714C97.0997 100.806 96.7676 102.18 96.1036 103.393C95.4624 104.607 94.5693 105.569 93.4243 106.279C92.3023 106.966 90.997 107.309 89.5085 107.309C88.2262 107.309 87.1842 107.103 86.3828 106.691V113.355H81.9861V91.9894L86.3828 91.7833V92.8825C86.9094 92.4474 87.4934 92.1268 88.1346 91.9207C88.7757 91.6917 89.5085 91.5772 90.3329 91.5772C91.5924 91.5772 92.7259 91.8864 93.7335 92.5047C94.7639 93.123 95.5769 94.0046 96.1723 95.1496C96.7905 96.2945 97.0997 97.6685 97.0997 99.2714ZM92.5656 99.4088C92.5656 98.5845 92.4282 97.8746 92.1534 97.2792C91.8786 96.6609 91.4664 96.1915 90.9168 95.8709C90.3902 95.5274 89.7261 95.3556 88.9246 95.3556C87.9399 95.3556 87.0926 95.619 86.3828 96.1457V103.119C86.6805 103.233 87.0239 103.336 87.4132 103.428C87.8254 103.496 88.2491 103.531 88.6842 103.531C89.4856 103.531 90.1726 103.37 90.7451 103.05C91.3176 102.706 91.7641 102.225 92.0847 101.607C92.4053 100.966 92.5656 100.233 92.5656 99.4088ZM114.199 99.2714C114.199 100.806 113.867 102.18 113.203 103.393C112.562 104.607 111.669 105.569 110.524 106.279C109.402 106.966 108.096 107.309 106.608 107.309C105.326 107.309 104.284 107.103 103.482 106.691V113.355H99.0855V91.9894L103.482 91.7833V92.8825C104.009 92.4474 104.593 92.1268 105.234 91.9207C105.875 91.6917 106.608 91.5772 107.432 91.5772C108.692 91.5772 109.825 91.8864 110.833 92.5047C111.863 93.123 112.676 94.0046 113.272 95.1496C113.89 96.2945 114.199 97.6685 114.199 99.2714ZM109.665 99.4088C109.665 98.5845 109.528 97.8746 109.253 97.2792C108.978 96.6609 108.566 96.1915 108.016 95.8709C107.49 95.5274 106.825 95.3556 106.024 95.3556C105.039 95.3556 104.192 95.619 103.482 96.1457V103.119C103.78 103.233 104.123 103.336 104.513 103.428C104.925 103.496 105.348 103.531 105.784 103.531C106.585 103.531 107.272 103.37 107.845 103.05C108.417 102.706 108.864 102.225 109.184 101.607C109.505 100.966 109.665 100.233 109.665 99.4088ZM129.581 100.508H119.895C120.032 101.126 120.307 101.664 120.719 102.122C121.154 102.558 121.704 102.89 122.368 103.119C123.055 103.348 123.856 103.462 124.772 103.462C125.551 103.462 126.387 103.359 127.28 103.153C128.173 102.924 128.906 102.638 129.478 102.294L129.65 106.038C129.054 106.45 128.253 106.771 127.245 107C126.261 107.206 125.333 107.309 124.463 107.309C122.517 107.309 120.845 106.989 119.448 106.347C118.074 105.683 117.032 104.756 116.322 103.565C115.635 102.374 115.292 100.977 115.292 99.3745C115.292 97.7944 115.612 96.4319 116.254 95.287C116.918 94.1191 117.822 93.2146 118.967 92.5734C120.135 91.9093 121.44 91.5772 122.883 91.5772C124.211 91.5772 125.39 91.8406 126.421 92.3673C127.474 92.894 128.287 93.6611 128.86 94.6687C129.455 95.6533 129.753 96.8441 129.753 98.241C129.753 98.5387 129.73 98.9051 129.684 99.3401C129.661 99.7523 129.627 100.142 129.581 100.508ZM122.917 94.7374C122.024 94.7374 121.291 95.0351 120.719 95.6304C120.169 96.2258 119.837 97.0159 119.723 98.0005H125.665C125.665 97.9547 125.665 97.886 125.665 97.7944C125.665 97.6799 125.665 97.5998 125.665 97.554C125.665 96.7067 125.413 96.0312 124.91 95.5274C124.429 95.0007 123.765 94.7374 122.917 94.7374ZM141.594 91.749L141.422 95.9739C141.285 95.9052 141.044 95.8365 140.701 95.7678C140.38 95.6991 140.071 95.6648 139.773 95.6648C139.155 95.6648 138.548 95.7793 137.953 96.0083C137.38 96.2144 136.854 96.5006 136.373 96.867V107H131.976V91.9894L136.373 91.7833V93.5695C137.037 92.8825 137.712 92.3787 138.399 92.0581C139.109 91.7375 139.842 91.5772 140.598 91.5772C140.758 91.5772 140.93 91.5887 141.113 91.6116C141.319 91.6345 141.479 91.6803 141.594 91.749ZM159.114 85.4631L158.942 89.2415C158.782 89.1728 158.564 89.127 158.29 89.1041C158.038 89.0812 157.797 89.0698 157.568 89.0698C156.744 89.0698 156.114 89.253 155.679 89.6193C155.244 89.9857 155.027 90.5926 155.027 91.4399V91.8864H158.771L158.461 95.6648H155.027V107H150.63V95.6648H148.569V91.8864H150.63V91.3712C150.63 89.356 151.214 87.8332 152.382 86.8027C153.55 85.7493 155.118 85.2227 157.087 85.2227C157.408 85.2227 157.763 85.2456 158.152 85.2914C158.542 85.3372 158.862 85.3944 159.114 85.4631ZM175.888 99.4432C175.888 100.955 175.533 102.306 174.823 103.496C174.136 104.687 173.174 105.626 171.938 106.313C170.701 106.977 169.293 107.309 167.713 107.309C166.133 107.309 164.724 106.977 163.488 106.313C162.251 105.626 161.278 104.687 160.568 103.496C159.881 102.306 159.538 100.955 159.538 99.4432C159.538 97.9089 159.881 96.5579 160.568 95.39C161.278 94.1992 162.251 93.2718 163.488 92.6077C164.724 91.9207 166.133 91.5772 167.713 91.5772C169.293 91.5772 170.701 91.9207 171.938 92.6077C173.174 93.2718 174.136 94.1992 174.823 95.39C175.533 96.5579 175.888 97.9089 175.888 99.4432ZM171.354 99.4432C171.354 98.6417 171.194 97.9433 170.873 97.3479C170.552 96.7296 170.117 96.2602 169.568 95.9396C169.018 95.5961 168.4 95.4243 167.713 95.4243C167.026 95.4243 166.408 95.5961 165.858 95.9396C165.308 96.2602 164.873 96.7296 164.553 97.3479C164.232 97.9433 164.072 98.6417 164.072 99.4432C164.072 100.245 164.232 100.955 164.553 101.573C164.873 102.168 165.308 102.638 165.858 102.981C166.431 103.302 167.049 103.462 167.713 103.462C168.423 103.462 169.052 103.302 169.602 102.981C170.152 102.638 170.575 102.168 170.873 101.573C171.194 100.955 171.354 100.245 171.354 99.4432ZM187.483 91.749L187.312 95.9739C187.174 95.9052 186.934 95.8365 186.59 95.7678C186.27 95.6991 185.961 95.6648 185.663 95.6648C185.045 95.6648 184.438 95.7793 183.842 96.0083C183.27 96.2144 182.743 96.5006 182.262 96.867V107H177.866V91.9894L182.262 91.7833V93.5695C182.926 92.8825 183.602 92.3787 184.289 92.0581C184.999 91.7375 185.732 91.5772 186.487 91.5772C186.648 91.5772 186.819 91.5887 187.003 91.6116C187.209 91.6345 187.369 91.6803 187.483 91.749Z" fill="white"/>
<path d="M214.518 107H209.641L207.923 102.019H200.744L198.993 107H194.355L201.775 86.5966H207.099L214.518 107ZM206.755 98.4127L205.107 93.7756C204.946 93.3176 204.809 92.894 204.695 92.5047C204.603 92.0925 204.511 91.6803 204.42 91.2681H204.248C204.156 91.6803 204.053 92.0925 203.939 92.5047C203.847 92.894 203.721 93.3176 203.561 93.7756L201.878 98.4127H206.755ZM231.883 93.4664C231.883 94.8175 231.505 95.9854 230.75 96.9701C230.017 97.9318 229.089 98.6074 227.967 98.9967L233.326 107H228.036L223.502 100.13H220.926V107H216.357V86.5966H223.433C225.219 86.5966 226.742 86.8714 228.002 87.421C229.261 87.9477 230.223 88.7263 230.887 89.7567C231.551 90.7643 231.883 92.0009 231.883 93.4664ZM227.28 93.4664C227.28 92.7566 227.109 92.1726 226.765 91.7146C226.445 91.2338 225.987 90.8903 225.391 90.6842C224.819 90.4552 224.12 90.3407 223.296 90.3407H220.926V96.5579H223.296C224.12 96.5579 224.819 96.4548 225.391 96.2487C225.987 96.0197 226.445 95.6762 226.765 95.2183C227.109 94.7603 227.28 94.1763 227.28 93.4664ZM253.75 96.7983C253.75 98.7906 253.292 100.554 252.376 102.088C251.46 103.622 250.155 104.825 248.461 105.695C246.789 106.565 244.785 107 242.45 107H235.168V86.5966H242.45C244.785 86.5966 246.789 87.0317 248.461 87.9019C250.155 88.7721 251.46 89.9743 252.376 91.5085C253.292 93.0199 253.75 94.7832 253.75 96.7983ZM249.01 96.7983C249.01 95.4701 248.747 94.3366 248.22 93.3978C247.694 92.4589 246.938 91.7375 245.953 91.2338C244.969 90.7071 243.801 90.4437 242.45 90.4437H239.702V103.153H242.45C243.801 103.153 244.969 102.901 245.953 102.397C246.938 101.871 247.694 101.138 248.22 100.199C248.747 99.2371 249.01 98.1036 249.01 96.7983ZM279.384 88.0393L277.907 92.1955C277.289 91.6688 276.533 91.2567 275.64 90.959C274.747 90.6613 273.785 90.5124 272.755 90.5124C271.541 90.5124 270.442 90.7643 269.457 91.2681C268.495 91.749 267.728 92.4589 267.156 93.3978C266.606 94.3137 266.331 95.4472 266.331 96.7983C266.331 98.012 266.606 99.0997 267.156 100.061C267.705 101 268.484 101.745 269.491 102.294C270.499 102.821 271.667 103.084 272.995 103.084C273.522 103.084 274.003 103.05 274.438 102.981C274.896 102.89 275.285 102.798 275.606 102.706V96.9357L280.14 96.764V105.592C279.292 106.118 278.216 106.542 276.911 106.863C275.628 107.16 274.255 107.309 272.789 107.309C270.522 107.309 268.553 106.851 266.881 105.935C265.209 105.019 263.915 103.771 262.999 102.191C262.106 100.588 261.66 98.7906 261.66 96.7983C261.66 94.7603 262.118 92.9512 263.034 91.3712C263.973 89.7911 265.244 88.5545 266.847 87.6614C268.472 86.7455 270.327 86.2875 272.411 86.2875C273.877 86.2875 275.182 86.4363 276.327 86.734C277.495 87.0088 278.514 87.4439 279.384 88.0393ZM297.05 86.5966L296.706 90.6498H287.982V94.7374H295.161V98.6875H287.982V102.947H297.222V107H283.413V86.5966H297.05ZM315.754 105.866C315.021 106.347 314.105 106.714 313.006 106.966C311.929 107.195 310.796 107.309 309.605 107.309C307.338 107.309 305.369 106.851 303.697 105.935C302.025 105.019 300.732 103.771 299.816 102.191C298.9 100.588 298.442 98.7906 298.442 96.7983C298.442 94.7603 298.9 92.9627 299.816 91.4055C300.732 89.8254 301.98 88.5774 303.56 87.6614C305.163 86.7455 306.972 86.2875 308.987 86.2875C310.429 86.2875 311.689 86.4363 312.765 86.734C313.864 87.0088 314.849 87.4439 315.719 88.0393L314.242 92.1955C313.624 91.6688 312.903 91.2567 312.078 90.959C311.254 90.6613 310.338 90.5124 309.33 90.5124C308.139 90.5124 307.075 90.7643 306.136 91.2681C305.197 91.7719 304.453 92.4932 303.903 93.4321C303.376 94.371 303.113 95.493 303.113 96.7983C303.113 98.012 303.388 99.0997 303.937 100.061C304.487 101 305.266 101.745 306.273 102.294C307.281 102.821 308.449 103.084 309.777 103.084C310.968 103.084 312.067 102.935 313.074 102.638C314.105 102.34 314.941 101.939 315.582 101.435L315.754 105.866Z" fill="#A0FFEF"/>
<g style="mix-blend-mode:overlay">
<path fill-rule="evenodd" clip-rule="evenodd" d="M477.798 -3.92365L379 -3.92364V-55L477.798 -55L477.798 -3.92365L529.11 -3.92364V94.7405L477.798 95.3454L477.798 47.5157C451.624 47.9714 430.547 69.211 430.547 95.3454H379C379 40.9038 423.155 -3.46485 477.798 -3.92365Z" fill="#A0FFEF"/>
<path fill-rule="evenodd" clip-rule="evenodd" d="M580.892 94.9327L679.69 94.9291V146.187H580.892V94.9291L529.11 94.7405V-3.92369L580.892 -3.92369V43.6711C607.066 43.2153 628.127 22.2107 628.127 -3.92369H679.221C679.221 50.5179 635.536 94.4703 580.892 94.9291V94.9327Z" fill="#06D8B5" fill-opacity="0.5"/>
<path fill-rule="evenodd" clip-rule="evenodd" d="M778.489 47.0954L679.221 47.0954V-3.92383L778.489 -3.92383V47.099L830.036 47.099V146.187H778.489V98.357C752.315 98.8127 731.238 120.052 731.238 146.187H679.691C679.691 91.7451 723.845 47.5578 778.489 47.099V47.0954Z" fill="#A0FFEF" fill-opacity="0.7"/>
</g>
</g>
<rect x="0.5" y="0.5" width="829" height="134" rx="13.5" stroke="url(#paint2_linear_375_6881)" style="mix-blend-mode:overlay"/>
<rect x="0.5" y="0.5" width="829" height="134" rx="13.5" stroke="url(#paint3_linear_375_6881)" stroke-opacity="0.1"/>
<rect x="0.5" y="0.5" width="829" height="134" rx="13.5" stroke="white" stroke-opacity="0.1"/>
<defs>
<radialGradient id="paint0_radial_375_6881" cx="0" cy="0" r="1" gradientUnits="userSpaceOnUse" gradientTransform="translate(9.4458e-07 165.586) rotate(17.7974) scale(413.385 308.037)">
<stop offset="0.100613" stop-color="#A0FFEF" stop-opacity="0"/>
<stop offset="0.515" stop-color="#00FFD5"/>
<stop offset="1" stop-color="#00FFD5" stop-opacity="0.35"/>
</radialGradient>
<radialGradient id="paint1_radial_375_6881" cx="0" cy="0" r="1" gradientUnits="userSpaceOnUse" gradientTransform="translate(1075 -132) rotate(110.154) scale(458.578 1768.11)">
<stop stop-color="#2BB19B" stop-opacity="0"/>
<stop offset="0.285" stop-color="#2BB19B"/>
<stop offset="1" stop-color="#2BB19B" stop-opacity="0.184314"/>
</radialGradient>
<linearGradient id="paint2_linear_375_6881" x1="415" y1="0" x2="415" y2="135" gradientUnits="userSpaceOnUse">
<stop stop-color="white" stop-opacity="0.6"/>
<stop offset="0.5" stop-color="white" stop-opacity="0"/>
<stop offset="1" stop-color="white"/>
</linearGradient>
<linearGradient id="paint3_linear_375_6881" x1="415" y1="0" x2="415" y2="135" gradientUnits="userSpaceOnUse">
<stop stop-color="white" stop-opacity="0.6"/>
<stop offset="0.5" stop-color="white" stop-opacity="0"/>
<stop offset="1" stop-color="white"/>
</linearGradient>
<clipPath id="clip0_375_6881">
<rect width="830" height="135" rx="14" fill="white"/>
</clipPath>
</defs>
</svg>
